<mxfile host="app.diagrams.net" modified="2024-01-19T00:38:05.878Z" agent="Mozilla/5.0 (Windows NT 10.0; Win64; x64) AppleWebKit/537.36 (KHTML, like Gecko) Chrome/120.0.0.0 Safari/537.36" etag="OKHIntnet0_tckU7IkJA" version="22.1.21" type="github">
  <diagram name="Page-1" id="eWkvGwyeHB7CW2dsNWsv">
    <mxGraphModel dx="1434" dy="746" grid="1" gridSize="10" guides="1" tooltips="1" connect="1" arrows="1" fold="1" page="1" pageScale="1" pageWidth="850" pageHeight="1100" math="0" shadow="0">
      <root>
        <mxCell id="0" />
        <mxCell id="1" parent="0" />
        <mxCell id="2alB5OL39Hzy51NyVhFJ-3" style="edgeStyle=orthogonalEdgeStyle;rounded=0;orthogonalLoop=1;jettySize=auto;html=1;exitX=0.5;exitY=1;exitDx=0;exitDy=0;entryX=0.5;entryY=0;entryDx=0;entryDy=0;" edge="1" parent="1" source="2alB5OL39Hzy51NyVhFJ-1" target="2alB5OL39Hzy51NyVhFJ-2">
          <mxGeometry relative="1" as="geometry" />
        </mxCell>
        <mxCell id="2alB5OL39Hzy51NyVhFJ-1" value="print logo" style="rounded=0;whiteSpace=wrap;html=1;" vertex="1" parent="1">
          <mxGeometry x="350" y="60" width="120" height="60" as="geometry" />
        </mxCell>
        <mxCell id="2alB5OL39Hzy51NyVhFJ-5" style="edgeStyle=orthogonalEdgeStyle;rounded=0;orthogonalLoop=1;jettySize=auto;html=1;exitX=0.5;exitY=1;exitDx=0;exitDy=0;entryX=0.5;entryY=0;entryDx=0;entryDy=0;" edge="1" parent="1" source="2alB5OL39Hzy51NyVhFJ-2" target="2alB5OL39Hzy51NyVhFJ-4">
          <mxGeometry relative="1" as="geometry" />
        </mxCell>
        <mxCell id="2alB5OL39Hzy51NyVhFJ-2" value="print welcome to blind auction" style="rounded=0;whiteSpace=wrap;html=1;" vertex="1" parent="1">
          <mxGeometry x="350" y="160" width="120" height="60" as="geometry" />
        </mxCell>
        <mxCell id="2alB5OL39Hzy51NyVhFJ-7" style="edgeStyle=orthogonalEdgeStyle;rounded=0;orthogonalLoop=1;jettySize=auto;html=1;exitX=0.5;exitY=1;exitDx=0;exitDy=0;entryX=0.5;entryY=0;entryDx=0;entryDy=0;" edge="1" parent="1" source="2alB5OL39Hzy51NyVhFJ-4" target="2alB5OL39Hzy51NyVhFJ-6">
          <mxGeometry relative="1" as="geometry" />
        </mxCell>
        <mxCell id="2alB5OL39Hzy51NyVhFJ-4" value="create blank dictionary" style="rounded=0;whiteSpace=wrap;html=1;" vertex="1" parent="1">
          <mxGeometry x="350" y="250" width="120" height="60" as="geometry" />
        </mxCell>
        <mxCell id="2alB5OL39Hzy51NyVhFJ-6" value="input bidder name and amount" style="rounded=0;whiteSpace=wrap;html=1;" vertex="1" parent="1">
          <mxGeometry x="350" y="340" width="120" height="60" as="geometry" />
        </mxCell>
        <mxCell id="2alB5OL39Hzy51NyVhFJ-10" value="Yes" style="edgeStyle=orthogonalEdgeStyle;rounded=0;orthogonalLoop=1;jettySize=auto;html=1;exitX=1;exitY=0.5;exitDx=0;exitDy=0;entryX=1;entryY=0.5;entryDx=0;entryDy=0;" edge="1" parent="1" source="2alB5OL39Hzy51NyVhFJ-8" target="2alB5OL39Hzy51NyVhFJ-6">
          <mxGeometry relative="1" as="geometry" />
        </mxCell>
        <mxCell id="2alB5OL39Hzy51NyVhFJ-12" value="No" style="edgeStyle=orthogonalEdgeStyle;rounded=0;orthogonalLoop=1;jettySize=auto;html=1;exitX=0;exitY=0.5;exitDx=0;exitDy=0;entryX=1;entryY=0.5;entryDx=0;entryDy=0;" edge="1" parent="1" source="2alB5OL39Hzy51NyVhFJ-8" target="2alB5OL39Hzy51NyVhFJ-11">
          <mxGeometry relative="1" as="geometry" />
        </mxCell>
        <mxCell id="2alB5OL39Hzy51NyVhFJ-8" value="another bidder?" style="rhombus;whiteSpace=wrap;html=1;" vertex="1" parent="1">
          <mxGeometry x="350" y="420" width="130" height="80" as="geometry" />
        </mxCell>
        <mxCell id="2alB5OL39Hzy51NyVhFJ-14" style="edgeStyle=orthogonalEdgeStyle;rounded=0;orthogonalLoop=1;jettySize=auto;html=1;exitX=0.5;exitY=1;exitDx=0;exitDy=0;entryX=0.5;entryY=0;entryDx=0;entryDy=0;" edge="1" parent="1" source="2alB5OL39Hzy51NyVhFJ-11" target="2alB5OL39Hzy51NyVhFJ-13">
          <mxGeometry relative="1" as="geometry" />
        </mxCell>
        <mxCell id="2alB5OL39Hzy51NyVhFJ-11" value="check bids" style="rounded=0;whiteSpace=wrap;html=1;" vertex="1" parent="1">
          <mxGeometry x="150" y="430" width="120" height="60" as="geometry" />
        </mxCell>
        <mxCell id="2alB5OL39Hzy51NyVhFJ-13" value="print winning bid" style="rounded=0;whiteSpace=wrap;html=1;" vertex="1" parent="1">
          <mxGeometry x="150" y="540" width="120" height="60" as="geometry" />
        </mxCell>
      </root>
    </mxGraphModel>
  </diagram>
</mxfile>
